<?xml version="1.0" standalone="no"?>
<!DOCTYPE svg PUBLIC "-//W3C//DTD SVG 20010904//EN"
 "http://www.w3.org/TR/2001/REC-SVG-20010904/DTD/svg10.dtd">
<svg version="1.0" xmlns="http://www.w3.org/2000/svg"
 width="493.000000pt" height="512.000000pt" viewBox="0 0 493.000000 512.000000"
 preserveAspectRatio="xMidYMid meet">

<g transform="translate(0.000000,512.000000) scale(0.100000,-0.100000)"
fill="#000000" stroke="none">
<path d="M620 5096 c-285 -85 -496 -298 -594 -596 l-21 -65 -3 -1833 c-2
-1809 -2 -1835 18 -1919 39 -166 122 -315 238 -432 114 -114 230 -183 378
-226 l86 -25 1732 0 c1675 0 1734 1 1811 19 307 75 556 321 640 632 l25 94 0
1820 c0 1782 -1 1822 -20 1899 -77 305 -303 542 -604 632 l-80 24 -1765 -1
-1766 0 -75 -23z m2425 -1106 c471 -14 783 -29 859 -41 161 -26 303 -135 382
-294 41 -81 46 -102 59 -214 24 -199 35 -480 35 -863 0 -492 -23 -797 -70
-920 -67 -179 -216 -298 -415 -333 -206 -36 -674 -55 -1340 -55 -733 0 -1305
21 -1510 56 -214 35 -360 157 -431 356 -70 200 -87 1233 -29 1750 24 208 96
343 232 434 109 74 154 84 453 100 598 32 1223 41 1775 24z"/>
<path d="M2000 2635 l0 -667 33 20 c38 23 385 226 607 355 85 49 180 104 210
122 30 18 98 57 151 87 161 92 158 75 27 153 -112 66 -148 88 -343 200 -55 32
-120 70 -145 86 -25 15 -106 62 -180 104 -74 43 -162 94 -195 113 -33 19 -84
48 -112 64 l-53 30 0 -667z"/>
</g>
</svg>
