<?xml version="1.0" standalone="no"?>
<!DOCTYPE svg PUBLIC "-//W3C//DTD SVG 20010904//EN"
 "http://www.w3.org/TR/2001/REC-SVG-20010904/DTD/svg10.dtd">
<svg version="1.0" xmlns="http://www.w3.org/2000/svg"
 width="512.000000pt" height="512.000000pt" viewBox="0 0 512.000000 512.000000"
 preserveAspectRatio="xMidYMid meet">

<g transform="translate(0.000000,512.000000) scale(0.100000,-0.100000)"
fill="#000000" stroke="none">
<path d="M1135 5105 c-53 -26 -59 -47 -63 -202 l-4 -143 -216 0 c-250 0 -320
-11 -428 -65 -136 -69 -238 -188 -291 -340 l-28 -80 0 -1895 0 -1895 28 -80
c68 -196 217 -335 412 -385 76 -20 112 -20 1555 -20 l1477 0 36 24 c20 14 344
313 721 666 600 561 687 646 696 680 7 27 10 492 7 1472 -3 1590 3 1465 -69
1608 -42 83 -151 194 -235 238 -114 60 -187 72 -440 72 l-223 0 0 131 c0 151
-11 188 -65 213 -41 20 -56 20 -100 2 -55 -23 -65 -56 -65 -211 l0 -135 -1270
0 -1270 0 0 140 c0 158 -8 182 -67 206 -41 18 -60 17 -98 -1z m-63 -774 l3
-200 28 -29 c35 -37 84 -48 129 -29 63 26 67 44 70 259 l3 193 1265 0 1265 0
5 -195 c3 -126 9 -202 17 -216 13 -23 70 -54 98 -54 34 0 84 32 99 65 13 26
16 70 16 220 l0 187 228 -4 c252 -6 279 -11 365 -74 53 -38 109 -119 126 -179
7 -26 11 -174 11 -417 l0 -378 -2230 0 -2231 0 3 393 3 392 27 57 c47 100 150
180 256 198 26 4 136 8 244 9 l196 1 4 -199z m3728 -1950 l0 -870 -507 -4
c-439 -3 -514 -5 -555 -20 -141 -48 -248 -154 -301 -296 -20 -53 -21 -79 -25
-509 l-3 -452 -1397 2 c-1291 3 -1400 4 -1440 20 -100 41 -167 107 -209 207
l-23 56 0 1368 0 1367 2230 0 2230 0 0 -869z m-192 -1110 c-1 -5 -218 -210
-481 -456 l-478 -446 3 379 3 378 28 42 c34 52 90 90 148 101 60 12 782 14
777 2z"/>
</g>
</svg>
